<svg width="24" height="24" viewBox="0 0 24 24" fill="none" xmlns="http://www.w3.org/2000/svg">
<g clip-path="url(#clip0_16_56)">
<rect width="24" height="24" fill="white"/>
<path d="M18.4303 10.133C17.2445 11.3018 16.0726 12.4786 14.9053 13.6577C14.3234 14.2482 13.74 14.8381 13.1624 15.4309L12.294 16.3192L11.4303 17.21L10.5673 18.1013L10.527 18.1431C10.6136 17.9593 10.7 17.7755 10.7871 17.5918C10.9767 17.1883 11.1694 16.7861 11.3555 16.3815L11.9177 15.1697L12.4726 13.9556L12.7492 13.3486L13.0217 12.7403C13.2029 12.3345 13.3868 11.9296 13.5646 11.5229L13.837 10.899L13.0167 11.0012L11.3667 11.2069L9.71801 11.4192L8.07055 11.6379C7.68761 11.6907 7.30443 11.7423 6.92148 11.795C7.01078 11.6202 7.09976 11.4453 7.18743 11.2701L7.41536 10.8172L7.64062 10.3636C7.79119 10.0613 7.93879 9.75776 8.08574 9.45423C8.23032 9.14981 8.37877 8.84688 8.51926 8.54097C8.31714 8.82583 8.12302 9.11335 7.92496 9.3994C7.72933 9.68633 7.53433 9.97356 7.34233 10.2617L7.05366 10.6938L6.7677 11.1266C6.57621 11.415 6.38851 11.7049 6.19964 11.9942L5.97388 12.3398L6.50288 12.304C7.0583 12.266 7.6128 12.2231 8.16776 12.1825L9.8313 12.0538L11.4936 11.918L12.3042 11.8487C12.2025 12.0505 12.1013 12.2521 11.9993 12.4537L11.6967 13.0536L11.3981 13.6548L10.8026 14.8573L10.2145 16.062C10.0171 16.463 9.82639 16.8661 9.63258 17.2684C9.44017 17.6709 9.24454 18.0726 9.05479 18.476C8.6747 19.2825 8.29141 20.0879 7.91916 20.8965L6.49063 24L8.97229 21.3248L9.8114 20.4205L10.6461 19.5134L11.4802 18.6064L12.3101 17.6967L13.1396 16.787L13.9641 15.8743C14.5151 15.2667 15.0603 14.6561 15.607 14.046C16.697 12.8239 17.7823 11.5997 18.8538 10.3675C19.926 9.13588 20.9893 7.89893 22.0279 6.64865C20.8097 7.79963 19.6154 8.96366 18.4303 10.133Z" fill="url(#paint0_linear_16_56)"/>
<path d="M8.65171 4.26078L9.73975 2.47304L10.6074 1.03562L11.8215 1.38338C12.3805 1.54445 12.9415 1.70154 13.502 1.85977C14.0629 2.01714 14.6223 2.17708 15.1844 2.33246L16.167 2.60509C16.0128 2.78864 15.8591 2.97248 15.705 3.15604L14.8421 4.18594L13.986 5.21926C13.7005 5.5636 13.4147 5.90766 13.1325 6.25371L12.2831 7.29016L11.4397 8.32945L11.0184 8.84938L10.6001 9.37074C10.3219 9.71878 10.041 10.0651 9.76517 10.4143L9.25743 11.0569L10.2035 10.9382L11.8013 10.7376L13.3986 10.5315L14.9944 10.3195C15.3564 10.2697 15.7188 10.2208 16.0808 10.171L15.805 10.4931L15.2396 11.1605C15.0519 11.383 14.8645 11.6061 14.6794 11.8304C14.4939 12.0543 14.3073 12.2777 14.1245 12.5034C14.3477 12.2999 14.5667 12.0945 14.7865 11.8893C15.0075 11.6847 15.2254 11.4786 15.4433 11.2723L16.0949 10.6525L16.7424 10.0307L17.0641 9.72134L16.5275 9.75805C15.9893 9.79476 15.4523 9.83574 14.9145 9.87416L13.3027 9.9971L11.6916 10.126L11.0572 10.179C11.1774 10.0429 11.2972 9.90689 11.4173 9.77115L11.8652 9.26402L12.31 8.75576L13.1986 7.73838L14.0816 6.71843C14.3764 6.37864 14.6682 6.03743 14.9601 5.69622L15.8359 4.67257L16.7055 3.64609C16.9951 3.30374 17.2862 2.96224 17.5728 2.61818L17.974 2.13695L17.2739 1.94543L15.5863 1.48412C15.0239 1.32988 14.4592 1.18019 13.8961 1.02793C13.3326 0.876252 12.7694 0.724285 12.2044 0.575448L10.5103 0.127519L10.0289 2.66111e-05L9.83305 0.3475L8.81203 2.15801L7.7984 3.97108C7.12504 5.18084 6.45725 6.3923 5.79457 7.60548C5.13368 8.81922 4.47604 10.0341 3.82948 11.2527C3.1815 12.471 2.5426 13.6921 1.91992 14.9189C2.6984 13.745 3.46058 12.5657 4.2138 11.3833C4.96836 10.2011 5.71183 9.01558 6.45214 7.82859C7.19058 6.64103 7.92394 5.45204 8.65171 4.26078Z" fill="url(#paint1_linear_16_56)"/>
</g>
<defs>
<linearGradient id="paint0_linear_16_56" x1="5.97388" y1="15.3245" x2="22.0279" y2="15.3245" gradientUnits="userSpaceOnUse">
<stop/>
<stop offset="0.0001" stop-color="white"/>
<stop offset="0.0002"/>
</linearGradient>
<linearGradient id="paint1_linear_16_56" x1="1.91992" y1="7.45949" x2="17.9739" y2="7.45949" gradientUnits="userSpaceOnUse">
<stop offset="0.9999"/>
<stop offset="1"/>
</linearGradient>
<clipPath id="clip0_16_56">
<rect width="24" height="24" fill="white"/>
</clipPath>
</defs>
</svg>
