<svg width="200" height="200" viewBox="0 0 200 200" fill="none" xmlns="http://www.w3.org/2000/svg">
<g clip-path="url(#clip0_16_54)">
<g filter="url(#filter0_d_16_54)">
<path d="M153.588 84.4419C143.706 94.1817 133.94 103.988 124.213 113.814C119.364 118.735 114.502 123.65 109.688 128.591L102.452 135.994L95.2542 143.416L88.0623 150.844L87.7265 151.192C88.4481 149.661 89.1684 148.13 89.8938 146.598C91.4741 143.236 93.0802 139.884 94.6306 136.512L99.3158 126.415L103.94 116.297L106.245 111.238L108.516 106.169C110.026 102.788 111.559 99.4134 113.04 96.0244L115.31 90.8247L108.474 91.6769L94.7239 93.3912L80.9851 95.1598L67.2562 96.9828C64.065 97.4225 60.8719 97.8523 57.6807 98.292C58.4248 96.8346 59.1663 95.3772 59.8969 93.9173L61.7963 90.143L63.6735 86.3637C64.9283 83.8441 66.1582 81.3147 67.3828 78.7853C68.5876 76.2484 69.8247 73.724 70.9955 71.1748C69.3111 73.5486 67.6935 75.9446 66.043 78.3283C64.4127 80.7194 62.7877 83.113 61.1877 85.5139L58.7822 89.1154L56.3992 92.7218C54.8034 95.1253 53.2392 97.5411 51.6653 99.9519L49.7839 102.832L54.1923 102.533C58.8208 102.217 63.4416 101.859 68.0663 101.52L81.9291 100.448L95.782 99.3171L102.537 98.7391C101.689 100.421 100.846 102.101 99.9955 103.781L97.474 108.78L94.9857 113.79L90.0236 123.811L85.1226 133.85C83.4776 137.192 81.8882 140.551 80.2732 143.903C78.6697 147.258 77.0395 150.605 75.4582 153.966C72.2908 160.688 69.0967 167.399 65.9947 174.138L54.0902 200L74.7707 177.707L81.7633 170.171L88.7189 162.612L95.6702 155.053L102.586 147.472L109.498 139.892L116.369 132.286C120.961 127.222 125.504 122.134 130.06 117.05C139.143 106.866 148.188 96.6641 157.117 86.3958C166.052 76.1323 174.913 65.8244 183.568 55.4054C173.415 64.997 163.463 74.6972 153.588 84.4419Z" fill="url(#paint0_linear_16_54)"/>
<path d="M72.0982 35.5062L81.1652 20.6084L88.3956 8.62983L98.5132 11.5278C103.172 12.8701 107.846 14.1792 112.517 15.4977C117.192 16.8092 121.853 18.142 126.537 19.4368L134.725 21.7087C133.441 23.2384 132.16 24.7704 130.875 26.3L123.685 34.8825L116.551 43.4935C114.172 46.363 111.79 49.2302 109.438 52.1139L102.36 60.751L95.3317 69.4118L91.8206 73.7445L88.3346 78.0892C86.0168 80.9895 83.6756 83.8757 81.3771 86.7855L77.1459 92.1404L85.03 91.1515L98.3452 89.4795L111.656 87.7626L124.954 85.9958C127.971 85.5808 130.99 85.1729 134.007 84.7579L131.709 87.4424L126.997 93.0036C125.433 94.8581 123.872 96.7174 122.329 98.5862C120.784 100.453 119.229 102.314 117.705 104.195C119.564 102.499 121.39 100.787 123.222 99.0771C125.063 97.372 126.879 95.655 128.695 93.9356L134.125 88.7705L139.521 83.5887L142.202 81.0109L137.73 81.3168C133.245 81.6227 128.77 81.9642 124.288 82.2844L110.857 83.3089L97.4309 84.3831L92.144 84.8243C93.1454 83.6907 94.1437 82.5571 95.1451 81.4259L98.877 77.1998L102.584 72.9643L109.989 64.4861L117.347 55.9866C119.804 53.155 122.236 50.3116 124.668 47.4681L131.967 38.9378L139.213 30.3837C141.626 27.5308 144.052 24.685 146.441 21.8178L149.784 17.8076L143.95 16.2116L129.886 12.3673C125.2 11.082 120.494 9.83455 115.801 8.56579C111.105 7.30177 106.412 6.03538 101.704 4.79507L87.5867 1.06233L83.5751 -0.000106812L81.9427 2.8955L73.4342 17.9831L64.9873 33.092C59.376 43.1733 53.8111 53.2689 48.2887 63.3787C42.7813 73.4932 37.301 83.6172 31.913 93.772C26.5132 103.924 21.189 114.101 16 124.324C22.4874 114.542 28.8388 104.714 35.1156 94.8605C41.4036 85.0092 47.5993 75.1295 53.7685 65.2379C59.9221 55.3416 66.0335 45.4334 72.0982 35.5062Z" fill="url(#paint1_linear_16_54)"/>
</g>
</g>
<defs>
<filter id="filter0_d_16_54" x="12" y="0" width="175.568" height="208" filterUnits="userSpaceOnUse" color-interpolation-filters="sRGB">
<feFlood flood-opacity="0" result="BackgroundImageFix"/>
<feColorMatrix in="SourceAlpha" type="matrix" values="0 0 0 0 0 0 0 0 0 0 0 0 0 0 0 0 0 0 127 0" result="hardAlpha"/>
<feOffset dy="4"/>
<feGaussianBlur stdDeviation="2"/>
<feComposite in2="hardAlpha" operator="out"/>
<feColorMatrix type="matrix" values="0 0 0 0 0 0 0 0 0 0 0 0 0 0 0 0 0 0 0.25 0"/>
<feBlend mode="normal" in2="BackgroundImageFix" result="effect1_dropShadow_16_54"/>
<feBlend mode="normal" in="SourceGraphic" in2="effect1_dropShadow_16_54" result="shape"/>
</filter>
<linearGradient id="paint0_linear_16_54" x1="49.7839" y1="127.704" x2="183.568" y2="127.704" gradientUnits="userSpaceOnUse">
<stop/>
<stop offset="0.0001" stop-color="white"/>
<stop offset="0.0002"/>
</linearGradient>
<linearGradient id="paint1_linear_16_54" x1="16" y1="62.1621" x2="149.783" y2="62.1621" gradientUnits="userSpaceOnUse">
<stop offset="0.9999"/>
<stop offset="1"/>
</linearGradient>
<clipPath id="clip0_16_54">
<rect width="200" height="200" fill="white"/>
</clipPath>
</defs>
</svg>
