<svg width="162" height="28" viewBox="0 0 162 28" fill="none" xmlns="http://www.w3.org/2000/svg">
<g clip-path="url(#clip0_18_37)">
<path d="M18.7885 11.8334C17.5815 13.1924 16.3887 14.5608 15.2006 15.932C14.6083 16.6186 14.0144 17.3045 13.4265 17.9939L12.5426 19.0269L11.6635 20.0626L10.7851 21.0991L10.744 21.1477C10.8322 20.934 10.9202 20.7203 11.0088 20.5066C11.2018 20.0375 11.398 19.5697 11.5873 19.0992L12.1596 17.6902L12.7244 16.2784L13.0059 15.5725L13.2833 14.8652C13.4678 14.3933 13.655 13.9225 13.8359 13.4496L14.1131 12.724L13.2782 12.8429L11.5987 13.0821L9.92062 13.3289L8.24374 13.5833C7.85395 13.6447 7.46393 13.7046 7.07415 13.766C7.16504 13.5626 7.25561 13.3593 7.34485 13.1556L7.57685 12.6289L7.80613 12.1015C7.95939 11.7499 8.10963 11.397 8.25919 11.044C8.40636 10.6901 8.55746 10.3378 8.70046 9.98208C8.49473 10.3133 8.29714 10.6477 8.09555 10.9803C7.89643 11.3139 7.69794 11.6479 7.50251 11.983L7.20869 12.4855L6.91762 12.9887C6.72271 13.3241 6.53165 13.6612 6.33942 13.9976L6.10962 14.3995L6.64806 14.3578C7.21341 14.3137 7.77781 14.2637 8.34269 14.2165L10.0359 14.0669L11.728 13.909L12.553 13.8284C12.4495 14.0631 12.3464 14.2975 12.2426 14.5319L11.9346 15.2295L11.6307 15.9285L11.0246 17.3269L10.426 18.7277C10.2251 19.194 10.0309 19.6628 9.83367 20.1305C9.63781 20.5986 9.43869 21.0657 9.24555 21.5348C8.85868 22.4726 8.46854 23.4091 8.08965 24.3494L6.6356 27.9583L9.16158 24.8475L10.0157 23.7959L10.8652 22.7412L11.7143 21.6864L12.559 20.6286L13.4033 19.5708L14.2425 18.5095C14.8034 17.8029 15.3583 17.0929 15.9148 16.3835C17.0242 14.9624 18.129 13.5388 19.2195 12.106C20.3109 10.6739 21.3932 9.2355 22.4504 7.78163C21.2104 9.12003 19.9947 10.4736 18.7885 11.8334Z" fill="url(#paint0_linear_18_37)"/>
<path d="M8.852 4.9843L9.95948 2.89293L10.8426 1.21137L12.0784 1.61819C12.6474 1.80662 13.2184 1.99039 13.7889 2.17549C14.3598 2.3596 14.9292 2.54669 15.5013 2.72846L16.5015 3.0474C16.3446 3.26213 16.1881 3.47719 16.0312 3.69192L15.153 4.89674L14.2816 6.10556C13.991 6.50838 13.7 6.91088 13.4129 7.3157L12.5483 8.52818L11.6898 9.74399L11.261 10.3522L10.8352 10.9621C10.5521 11.3693 10.2661 11.7744 9.98535 12.1829L9.46855 12.9346L10.4315 12.7958L12.0579 12.5611L13.6837 12.3201L15.308 12.0721C15.6764 12.0138 16.0453 11.9565 16.4137 11.8983L16.133 12.2751L15.5575 13.0558C15.3665 13.3162 15.1758 13.5772 14.9874 13.8395C14.7986 14.1015 14.6086 14.3629 14.4225 14.6269C14.6497 14.3888 14.8726 14.1485 15.0964 13.9084C15.3213 13.6691 15.5431 13.428 15.7649 13.1867L16.4282 12.4616L17.0872 11.7342L17.4147 11.3723L16.8684 11.4152C16.3207 11.4582 15.7741 11.5061 15.2267 11.551L13.5861 11.6949L11.9462 11.8457L11.3005 11.9076C11.4228 11.7485 11.5447 11.5893 11.667 11.4305L12.1229 10.8373L12.5756 10.2427L13.4801 9.05252L14.3788 7.85935C14.6789 7.46185 14.976 7.06269 15.273 6.66352L16.1645 5.46602L17.0496 4.2652C17.3444 3.8647 17.6407 3.46521 17.9324 3.06271L18.3408 2.49975L17.6281 2.2757L15.9104 1.73604C15.338 1.5556 14.7632 1.38049 14.19 1.20238C13.6165 1.02494 13.0432 0.847158 12.4681 0.673044L10.7438 0.149038L10.2538 -0.000107601L10.0544 0.40638L9.01519 2.52439L7.98346 4.64539C7.29808 6.06061 6.61836 7.47783 5.94384 8.89705C5.27115 10.3169 4.60177 11.7381 3.94366 13.1637C3.28411 14.5889 2.63379 16.0174 2 17.4526C2.79238 16.0794 3.56817 14.6998 4.33484 13.3165C5.10288 11.9336 5.85963 10.5466 6.61316 9.15805C7.36478 7.7688 8.11124 6.37788 8.852 4.9843Z" fill="url(#paint1_linear_18_37)"/>
<path d="M152.148 20.0122C151.087 20.0122 150.064 19.8958 149.082 19.6628C148.115 19.4161 147.346 19.1215 146.776 18.7789L147.917 16.8262C148.487 17.1414 149.169 17.4017 149.961 17.6073C150.754 17.8128 151.546 17.9156 152.339 17.9156C153.274 17.9156 153.947 17.806 154.359 17.5867C154.787 17.3675 155.001 17.0728 155.001 16.7029C155.001 16.4014 154.859 16.1753 154.573 16.0245C154.288 15.8601 153.916 15.7368 153.456 15.6545C152.996 15.5723 152.481 15.4969 151.911 15.4284C151.356 15.3599 150.793 15.2708 150.223 15.1612C149.668 15.0379 149.161 14.8666 148.701 14.6473C148.242 14.4144 147.869 14.106 147.584 13.7224C147.299 13.3387 147.156 12.8316 147.156 12.2013C147.156 11.5024 147.386 10.8994 147.845 10.3924C148.305 9.87168 148.947 9.47428 149.771 9.20021C150.611 8.91244 151.602 8.76855 152.743 8.76855C153.599 8.76855 154.462 8.85078 155.334 9.01522C156.206 9.17966 156.927 9.41262 157.497 9.71409L156.356 11.6668C155.754 11.3517 155.144 11.1393 154.526 11.0296C153.923 10.9063 153.321 10.8446 152.719 10.8446C151.816 10.8446 151.142 10.9611 150.698 11.1941C150.27 11.427 150.056 11.7216 150.056 12.0779C150.056 12.4068 150.199 12.6535 150.484 12.8179C150.77 12.9824 151.142 13.1125 151.602 13.2085C152.061 13.3044 152.568 13.3866 153.123 13.4551C153.694 13.5099 154.256 13.599 154.811 13.7224C155.366 13.8457 155.873 14.017 156.332 14.2362C156.808 14.4418 157.188 14.7364 157.474 15.1201C157.759 15.5038 157.901 16.004 157.901 16.6206C157.901 17.3058 157.664 17.9019 157.188 18.4089C156.729 18.916 156.071 19.3134 155.215 19.6011C154.359 19.8752 153.337 20.0122 152.148 20.0122Z" fill="white"/>
<path d="M139.404 20.0122C137.993 20.0122 136.757 19.7724 135.695 19.2928C134.649 18.7995 133.833 18.128 133.247 17.2784C132.676 16.4288 132.391 15.4627 132.391 14.3801C132.391 13.2838 132.668 12.3177 133.223 11.4818C133.793 10.6322 134.57 9.96761 135.553 9.48799C136.551 9.00837 137.684 8.76855 138.952 8.76855C140.188 8.76855 141.29 9.00151 142.257 9.46743C143.224 9.93335 143.984 10.5911 144.539 11.4407C145.094 12.2903 145.371 13.2907 145.371 14.4418C145.371 14.5514 145.363 14.6747 145.347 14.8118C145.347 14.9488 145.339 15.079 145.323 15.2023H134.744V13.4962H143.754L142.59 14.0307C142.605 13.4003 142.455 12.8453 142.138 12.3657C141.821 11.8861 141.385 11.5092 140.83 11.2352C140.291 10.9611 139.665 10.8241 138.952 10.8241C138.223 10.8241 137.581 10.9611 137.027 11.2352C136.488 11.5092 136.06 11.8929 135.743 12.3863C135.442 12.8659 135.291 13.4346 135.291 14.0923V14.5034C135.291 15.1612 135.466 15.7436 135.814 16.2506C136.163 16.7577 136.654 17.1482 137.288 17.4223C137.922 17.6964 138.651 17.8334 139.475 17.8334C140.188 17.8334 140.83 17.7375 141.401 17.5456C141.971 17.3538 142.479 17.0523 142.922 16.6412L144.515 18.2239C143.945 18.7995 143.224 19.2448 142.352 19.56C141.496 19.8615 140.513 20.0122 139.404 20.0122Z" fill="white"/>
<path d="M126.565 19.8686V8.89213H129.537V19.8686H126.565ZM128.063 7.08328C127.508 7.08328 127.048 6.93254 126.684 6.63106C126.335 6.32959 126.161 5.96644 126.161 5.54164C126.161 5.10313 126.335 4.73999 126.684 4.45221C127.048 4.15074 127.508 4 128.063 4C128.617 4 129.069 4.14389 129.418 4.43166C129.782 4.70573 129.965 5.05517 129.965 5.47997C129.965 5.93219 129.79 6.31588 129.442 6.63106C129.093 6.93254 128.633 7.08328 128.063 7.08328Z" fill="white"/>
<path d="M116.699 19.8683V8.89189H119.528V11.9135L119.195 11.0296C119.575 10.2896 120.17 9.7278 120.978 9.3441C121.802 8.9604 122.824 8.76855 124.045 8.76855V11.2146C123.918 11.1872 123.799 11.1735 123.688 11.1735C123.577 11.1598 123.466 11.153 123.355 11.153C122.23 11.153 121.335 11.4407 120.669 12.0163C120.003 12.5781 119.67 13.4209 119.67 14.5446V19.8683H116.699Z" fill="white"/>
<path d="M107.877 20.0122C106.467 20.0122 105.23 19.7724 104.168 19.2928C103.122 18.7995 102.306 18.128 101.72 17.2784C101.149 16.4288 100.864 15.4627 100.864 14.3801C100.864 13.2838 101.141 12.3177 101.696 11.4818C102.267 10.6322 103.043 9.96761 104.026 9.48799C105.024 9.00837 106.158 8.76855 107.425 8.76855C108.662 8.76855 109.763 9.00151 110.73 9.46743C111.697 9.93335 112.457 10.5911 113.012 11.4407C113.567 12.2903 113.844 13.2907 113.844 14.4418C113.844 14.5514 113.836 14.6747 113.82 14.8118C113.82 14.9488 113.812 15.079 113.797 15.2023H103.218V13.4962H112.228L111.063 14.0307C111.079 13.4003 110.928 12.8453 110.611 12.3657C110.294 11.8861 109.858 11.5092 109.303 11.2352C108.765 10.9611 108.139 10.8241 107.425 10.8241C106.696 10.8241 106.054 10.9611 105.5 11.2352C104.961 11.5092 104.533 11.8929 104.216 12.3863C103.915 12.8659 103.764 13.4346 103.764 14.0923V14.5034C103.764 15.1612 103.939 15.7436 104.287 16.2506C104.636 16.7577 105.127 17.1482 105.761 17.4223C106.395 17.6964 107.124 17.8334 107.948 17.8334C108.662 17.8334 109.304 17.7375 109.874 17.5456C110.445 17.3538 110.952 17.0523 111.396 16.6412L112.988 18.2239C112.418 18.7995 111.697 19.2448 110.825 19.56C109.969 19.8615 108.987 20.0122 107.877 20.0122Z" fill="white"/>
<path d="M93.5974 20.0122C92.5355 20.0122 91.5132 19.8958 90.5306 19.6628C89.5638 19.4161 88.7952 19.1215 88.2246 18.7789L89.3657 16.8262C89.9363 17.1414 90.6178 17.4017 91.4102 17.6073C92.2027 17.8128 92.9951 17.9156 93.7875 17.9156C94.7226 17.9156 95.3962 17.806 95.8083 17.5867C96.2362 17.3675 96.4501 17.0728 96.4501 16.7029C96.4501 16.4014 96.3075 16.1753 96.0222 16.0245C95.7369 15.8601 95.3645 15.7368 94.9049 15.6545C94.4453 15.5723 93.9302 15.4969 93.3596 15.4284C92.8049 15.3599 92.2423 15.2708 91.6717 15.1612C91.117 15.0379 90.6099 14.8666 90.1502 14.6473C89.6906 14.4144 89.3182 14.106 89.0329 13.7224C88.7476 13.3387 88.605 12.8316 88.605 12.2013C88.605 11.5024 88.8348 10.8994 89.2944 10.3924C89.754 9.87168 90.3959 9.47428 91.22 9.20021C92.06 8.91244 93.0506 8.76855 94.1917 8.76855C95.0475 8.76855 95.9113 8.85078 96.783 9.01522C97.6547 9.17966 98.3758 9.41262 98.9463 9.71409L97.8052 11.6668C97.203 11.3517 96.5928 11.1393 95.9747 11.0296C95.3724 10.9063 94.7702 10.8446 94.1679 10.8446C93.2645 10.8446 92.591 10.9611 92.1472 11.1941C91.7193 11.427 91.5053 11.7216 91.5053 12.0779C91.5053 12.4068 91.648 12.6535 91.9332 12.8179C92.2185 12.9824 92.591 13.1125 93.0506 13.2085C93.5102 13.3044 94.0173 13.3866 94.5721 13.4551C95.1426 13.5099 95.7052 13.599 96.26 13.7224C96.8147 13.8457 97.3218 14.017 97.7814 14.2362C98.2569 14.4418 98.6373 14.7364 98.9226 15.1201C99.2078 15.5038 99.3505 16.004 99.3505 16.6206C99.3505 17.3058 99.1127 17.9019 98.6373 18.4089C98.1777 18.916 97.5199 19.3134 96.6641 19.6011C95.8083 19.8752 94.786 20.0122 93.5974 20.0122Z" fill="white"/>
<path d="M84.3772 20.0124C82.9825 20.0124 81.9048 19.7041 81.144 19.0874C80.3833 18.4571 80.0029 17.5321 80.0029 16.3125V6.46655H82.9746V16.2508C82.9746 16.7715 83.1251 17.1758 83.4263 17.4636C83.7432 17.7513 84.1791 17.8952 84.7338 17.8952C85.3994 17.8952 85.9542 17.7445 86.3979 17.443L87.23 19.2724C86.8813 19.5191 86.4534 19.7041 85.9462 19.8274C85.4391 19.9507 84.9161 20.0124 84.3772 20.0124ZM77.9109 11.0298V8.97428H86.3742V11.0298H77.9109Z" fill="white"/>
<path d="M70.5277 8.7686C71.5421 8.7686 72.4455 8.93989 73.2379 9.28248C74.0462 9.62507 74.6801 10.1526 75.1397 10.8652C75.5994 11.5641 75.8292 12.4685 75.8292 13.5785V19.8684H72.8575V13.9074C72.8575 12.9345 72.5881 12.2082 72.0492 11.7285C71.5262 11.2489 70.7892 11.0091 69.8383 11.0091C69.141 11.0091 68.5229 11.1324 67.984 11.3791C67.4452 11.6258 67.0252 11.9958 66.724 12.4891C66.4388 12.9687 66.2961 13.5785 66.2961 14.3185V19.8684H63.3245V4.61646H66.2961V11.8519L65.6542 10.9475C66.098 10.2486 66.7399 9.71414 67.5799 9.34415C68.4357 8.96045 69.4183 8.7686 70.5277 8.7686Z" fill="white"/>
<path d="M52.5714 23.9999C51.3985 23.9999 50.2495 23.8629 49.1242 23.5888C48.0148 23.3285 47.1035 22.9448 46.3903 22.4377L47.7216 20.5056C48.2763 20.903 48.9737 21.2181 49.8137 21.4511C50.6695 21.6978 51.5333 21.8211 52.4049 21.8211C53.7996 21.8211 54.8219 21.5402 55.4717 20.9783C56.1215 20.4302 56.4464 19.6011 56.4464 18.4912V16.5384L56.6841 14.0512L56.589 11.5641V8.89189H59.418V18.2034C59.418 20.1904 58.8316 21.6498 57.6588 22.5816C56.486 23.5272 54.7902 23.9999 52.5714 23.9999ZM52.191 19.375C50.9865 19.375 49.8929 19.1558 48.9103 18.7173C47.9435 18.265 47.1748 17.6415 46.6043 16.8467C46.0496 16.0519 45.7722 15.1201 45.7722 14.0512C45.7722 12.9961 46.0496 12.0711 46.6043 11.2763C47.1748 10.4815 47.9435 9.86483 48.9103 9.42632C49.8929 8.98781 50.9865 8.76855 52.191 8.76855C53.2687 8.76855 54.2355 8.95355 55.0913 9.32354C55.9471 9.69354 56.6286 10.2691 57.1358 11.0502C57.6588 11.8313 57.9203 12.8316 57.9203 14.0512C57.9203 15.2708 57.6588 16.278 57.1358 17.0728C56.6286 17.8539 55.9471 18.4363 55.0913 18.82C54.2355 19.19 53.2687 19.375 52.191 19.375ZM52.6427 17.1962C53.3876 17.1962 54.0532 17.066 54.6396 16.8056C55.226 16.5316 55.6777 16.1616 55.9947 15.6956C56.3275 15.216 56.4939 14.6679 56.4939 14.0512C56.4939 13.4346 56.3275 12.8933 55.9947 12.4274C55.6777 11.9478 55.226 11.5846 54.6396 11.338C54.0532 11.0776 53.3876 10.9474 52.6427 10.9474C51.8978 10.9474 51.2242 11.0776 50.6219 11.338C50.0355 11.5846 49.5759 11.9478 49.2431 12.4274C48.9261 12.8933 48.7676 13.4346 48.7676 14.0512C48.7676 14.6679 48.9261 15.216 49.2431 15.6956C49.5759 16.1616 50.0355 16.5316 50.6219 16.8056C51.2242 17.066 51.8978 17.1962 52.6427 17.1962Z" fill="white"/>
<path d="M39.9461 19.8686V8.89213H42.9178V19.8686H39.9461ZM41.4438 7.08328C40.8891 7.08328 40.4295 6.93254 40.065 6.63106C39.7163 6.32959 39.542 5.96644 39.542 5.54164C39.542 5.10313 39.7163 4.73999 40.065 4.45221C40.4295 4.15074 40.8891 4 41.4438 4C41.9986 4 42.4502 4.14389 42.7989 4.43166C43.1634 4.70573 43.3457 5.05517 43.3457 5.47997C43.3457 5.93219 43.1714 6.31588 42.8227 6.63106C42.474 6.93254 42.0144 7.08328 41.4438 7.08328Z" fill="white"/>
<path d="M26 19.8684V5.47974H29.0905V17.6073H37.7915V19.8684H26Z" fill="white"/>
</g>
<defs>
<linearGradient id="paint0_linear_18_37" x1="6.10962" y1="17.8701" x2="22.4504" y2="17.8701" gradientUnits="userSpaceOnUse">
<stop/>
<stop offset="0.0001" stop-color="white"/>
</linearGradient>
<linearGradient id="paint1_linear_18_37" x1="2" y1="8.72627" x2="18.3407" y2="8.72627" gradientUnits="userSpaceOnUse">
<stop offset="0.9999" stop-color="white"/>
<stop offset="1"/>
</linearGradient>
<clipPath id="clip0_18_37">
<rect width="162" height="28" fill="white"/>
</clipPath>
</defs>
</svg>
